<svg viewBox="0 0 32 32" xmlns="http://www.w3.org/2000/svg">
  <!-- Background circle -->
  <circle cx="16" cy="16" r="15" fill="#dc2626"/>
  
  <!-- Left blood drop -->
  <g transform="translate(8, 8)">
    <path
      d="M3 2 C3 2, 1 4, 1 6 C1 8, 2 9, 3 9 C4 9, 5 8, 5 6 C5 4, 3 2, 3 2 Z"
      fill="#ffffff"
    />
  </g>
  
  <!-- Right blood drop -->
  <g transform="translate(19, 8)">
    <path
      d="M3 2 C3 2, 1 4, 1 6 C1 8, 2 9, 3 9 C4 9, 5 8, 5 6 C5 4, 3 2, 3 2 Z"
      fill="#ffffff"
    />
  </g>
  
  <!-- Heartbeat line -->
  <g transform="translate(0, 16)">
    <path
      d="M11 0 L12 0 L13 -3 L14 5 L15 -4 L16 2 L17 -1 L18 0 L21 0"
      stroke="#ffffff"
      strokeWidth="1"
      fill="none"
      strokeLinecap="round"
    />
  </g>
  
  <!-- Small heart in center -->
  <g transform="translate(14, 14)">
    <path
      d="M2 1 C2 0.5, 1.5 0, 1 0.5 C0.5 0, 0 0.5, 0 1 C0 1.5, 1 2.5, 2 3 C3 2.5, 4 1.5, 4 1 C4 0.5, 3.5 0, 3 0.5 C2.5 0, 2 0.5, 2 1 Z"
      fill="#ffffff"
    />
  </g>
</svg>
